<mxfile host="app.diagrams.net" agent="Mozilla/5.0 (Macintosh; Intel Mac OS X 10_15_7) AppleWebKit/537.36 (KHTML, like Gecko) Chrome/133.0.0.0 Safari/537.36" version="26.0.16" pages="10">
  <diagram id="apeP23jsynFM3OqLDiB0" name="architect">
    <mxGraphModel dx="1679" dy="1920" grid="1" gridSize="10" guides="1" tooltips="1" connect="1" arrows="1" fold="1" page="1" pageScale="1" pageWidth="827" pageHeight="1169" math="0" shadow="0">
      <root>
        <mxCell id="0" />
        <mxCell id="1" parent="0" />
        <mxCell id="DFlWInDrFq28ID34mn4g-7" value="" style="rounded=0;whiteSpace=wrap;html=1;strokeWidth=2;" vertex="1" parent="1">
          <mxGeometry x="-280" y="60" width="440" height="180" as="geometry" />
        </mxCell>
        <mxCell id="DFlWInDrFq28ID34mn4g-1" value="" style="rounded=0;whiteSpace=wrap;html=1;strokeWidth=2;" vertex="1" parent="1">
          <mxGeometry x="-750" y="60" width="400" height="180" as="geometry" />
        </mxCell>
        <mxCell id="-815vCcFMifysQOW950K-1" value="LLMEngine" style="rounded=0;whiteSpace=wrap;html=1;fillColor=#f5f5f5;strokeColor=#666666;strokeWidth=2;shadow=1;glass=0;fontColor=#333333;" parent="1" vertex="1">
          <mxGeometry x="-610" y="115" width="100" height="35" as="geometry" />
        </mxCell>
        <mxCell id="-815vCcFMifysQOW950K-4" value="EngineCore" style="rounded=0;whiteSpace=wrap;html=1;fillColor=#dae8fc;strokeColor=#6c8ebf;strokeWidth=2;shadow=1;glass=0;" parent="1" vertex="1">
          <mxGeometry x="-260" y="145" width="110" height="33" as="geometry" />
        </mxCell>
        <mxCell id="-815vCcFMifysQOW950K-5" value="Scheduler" style="rounded=0;whiteSpace=wrap;html=1;fillColor=#ffe6cc;strokeColor=#d79b00;strokeWidth=2;shadow=1;glass=0;" parent="1" vertex="1">
          <mxGeometry x="-110" y="120" width="110" height="30" as="geometry" />
        </mxCell>
        <mxCell id="-815vCcFMifysQOW950K-42" value="" style="endArrow=classic;html=1;rounded=0;fillColor=#dae8fc;strokeColor=light-dark(#01070e, #5c79a3);strokeWidth=2;exitX=1;exitY=0.5;exitDx=0;exitDy=0;" parent="1" source="DFlWInDrFq28ID34mn4g-1" target="DFlWInDrFq28ID34mn4g-7" edge="1">
          <mxGeometry width="50" height="50" relative="1" as="geometry">
            <mxPoint x="-443" y="470" as="sourcePoint" />
            <mxPoint x="-190" y="150" as="targetPoint" />
          </mxGeometry>
        </mxCell>
        <mxCell id="DFlWInDrFq28ID34mn4g-8" value="LLM API" style="text;html=1;align=center;verticalAlign=middle;whiteSpace=wrap;rounded=0;strokeWidth=3;fillColor=default;fontSize=18;" vertex="1" parent="1">
          <mxGeometry x="-615" y="75" width="110" height="30" as="geometry" />
        </mxCell>
        <mxCell id="DFlWInDrFq28ID34mn4g-9" value="Master Node" style="text;html=1;align=center;verticalAlign=middle;whiteSpace=wrap;rounded=0;fontSize=18;" vertex="1" parent="1">
          <mxGeometry x="-130" y="70" width="120" height="30" as="geometry" />
        </mxCell>
        <mxCell id="JMfvgWeIkwW7J8G9IK3E-10" value="" style="endArrow=classic;html=1;rounded=0;fillColor=#d5e8d4;strokeColor=#82b366;strokeWidth=2;" edge="1" parent="1" source="-815vCcFMifysQOW950K-4" target="-815vCcFMifysQOW950K-5">
          <mxGeometry width="50" height="50" relative="1" as="geometry">
            <mxPoint x="-350" y="150" as="sourcePoint" />
            <mxPoint x="-240" y="150" as="targetPoint" />
          </mxGeometry>
        </mxCell>
        <mxCell id="JMfvgWeIkwW7J8G9IK3E-26" value="" style="endArrow=classic;html=1;rounded=0;exitX=1;exitY=0.25;exitDx=0;exitDy=0;strokeWidth=2;startArrow=classic;startFill=1;entryX=0;entryY=0.5;entryDx=0;entryDy=0;fillColor=#e1d5e7;strokeColor=#9673a6;" edge="1" parent="1" source="DFlWInDrFq28ID34mn4g-7" target="kRdv5Xyp5Zt3pKr3yoIH-1">
          <mxGeometry width="50" height="50" relative="1" as="geometry">
            <mxPoint x="150" y="90" as="sourcePoint" />
            <mxPoint x="220" y="-5" as="targetPoint" />
          </mxGeometry>
        </mxCell>
        <mxCell id="JMfvgWeIkwW7J8G9IK3E-27" value="" style="endArrow=classic;html=1;rounded=0;exitX=1;exitY=0.75;exitDx=0;exitDy=0;entryX=0;entryY=0.5;entryDx=0;entryDy=0;strokeWidth=2;startArrow=classic;startFill=1;fillColor=#e1d5e7;strokeColor=#9673a6;" edge="1" parent="1" source="DFlWInDrFq28ID34mn4g-7" target="kRdv5Xyp5Zt3pKr3yoIH-20">
          <mxGeometry width="50" height="50" relative="1" as="geometry">
            <mxPoint x="130" y="95" as="sourcePoint" />
            <mxPoint x="274" y="255" as="targetPoint" />
          </mxGeometry>
        </mxCell>
        <mxCell id="JMfvgWeIkwW7J8G9IK3E-29" value="Executor" style="rounded=0;whiteSpace=wrap;html=1;fillColor=#e1d5e7;strokeColor=#9673a6;strokeWidth=2;shadow=1;glass=0;" vertex="1" parent="1">
          <mxGeometry x="-110" y="183" width="110" height="32" as="geometry" />
        </mxCell>
        <mxCell id="JMfvgWeIkwW7J8G9IK3E-30" value="" style="endArrow=classic;html=1;rounded=0;fillColor=#dae8fc;strokeColor=light-dark(#01070e, #5c79a3);strokeWidth=2;entryX=0;entryY=0.5;entryDx=0;entryDy=0;exitX=1;exitY=0.75;exitDx=0;exitDy=0;" edge="1" parent="1" source="-815vCcFMifysQOW950K-4" target="JMfvgWeIkwW7J8G9IK3E-29">
          <mxGeometry width="50" height="50" relative="1" as="geometry">
            <mxPoint x="-100" y="153" as="sourcePoint" />
            <mxPoint x="-50" y="146" as="targetPoint" />
          </mxGeometry>
        </mxCell>
        <mxCell id="JMfvgWeIkwW7J8G9IK3E-32" value="EngineCoreClient" style="rounded=0;whiteSpace=wrap;html=1;fillColor=#d5e8d4;strokeColor=#82b366;strokeWidth=2;shadow=1;glass=0;" vertex="1" parent="1">
          <mxGeometry x="-464" y="145" width="100" height="30" as="geometry" />
        </mxCell>
        <mxCell id="JMfvgWeIkwW7J8G9IK3E-34" value="LLM" style="rounded=0;whiteSpace=wrap;html=1;fillColor=#f5f5f5;strokeColor=#666666;strokeWidth=2;shadow=1;glass=0;fontColor=#333333;" vertex="1" parent="1">
          <mxGeometry x="-730" y="115" width="80" height="35" as="geometry" />
        </mxCell>
        <mxCell id="JMfvgWeIkwW7J8G9IK3E-36" value="AysncLLM" style="rounded=0;whiteSpace=wrap;html=1;fillColor=#dae8fc;strokeColor=#6c8ebf;strokeWidth=2;shadow=1;glass=0;" vertex="1" parent="1">
          <mxGeometry x="-610" y="177" width="100" height="35" as="geometry" />
        </mxCell>
        <mxCell id="JMfvgWeIkwW7J8G9IK3E-37" value="" style="endArrow=classic;html=1;rounded=0;exitX=1;exitY=0.5;exitDx=0;exitDy=0;entryX=0;entryY=0.5;entryDx=0;entryDy=0;" edge="1" parent="1" source="-815vCcFMifysQOW950K-1" target="JMfvgWeIkwW7J8G9IK3E-32">
          <mxGeometry width="50" height="50" relative="1" as="geometry">
            <mxPoint x="-480" y="340" as="sourcePoint" />
            <mxPoint x="-430" y="290" as="targetPoint" />
          </mxGeometry>
        </mxCell>
        <mxCell id="JMfvgWeIkwW7J8G9IK3E-38" value="" style="endArrow=classic;html=1;rounded=0;exitX=1;exitY=0.5;exitDx=0;exitDy=0;" edge="1" parent="1" source="JMfvgWeIkwW7J8G9IK3E-34" target="-815vCcFMifysQOW950K-1">
          <mxGeometry width="50" height="50" relative="1" as="geometry">
            <mxPoint x="-590" y="340" as="sourcePoint" />
            <mxPoint x="-540" y="290" as="targetPoint" />
          </mxGeometry>
        </mxCell>
        <mxCell id="JMfvgWeIkwW7J8G9IK3E-39" value="sync" style="endArrow=classic;html=1;rounded=0;exitX=1;exitY=0.5;exitDx=0;exitDy=0;" edge="1" parent="1">
          <mxGeometry width="50" height="50" relative="1" as="geometry">
            <mxPoint x="-454" y="94.38" as="sourcePoint" />
            <mxPoint x="-374" y="95.63" as="targetPoint" />
          </mxGeometry>
        </mxCell>
        <mxCell id="JMfvgWeIkwW7J8G9IK3E-40" value="async" style="endArrow=classic;html=1;rounded=0;exitX=1;exitY=0.5;exitDx=0;exitDy=0;fillColor=#dae8fc;strokeColor=#6c8ebf;" edge="1" parent="1">
          <mxGeometry width="50" height="50" relative="1" as="geometry">
            <mxPoint x="-454" y="115" as="sourcePoint" />
            <mxPoint x="-374" y="116.25" as="targetPoint" />
          </mxGeometry>
        </mxCell>
        <mxCell id="JMfvgWeIkwW7J8G9IK3E-41" value="API Endpoint" style="rounded=0;whiteSpace=wrap;html=1;fillColor=#dae8fc;strokeColor=#6c8ebf;" vertex="1" parent="1">
          <mxGeometry x="-730" y="178" width="80" height="33" as="geometry" />
        </mxCell>
        <mxCell id="JMfvgWeIkwW7J8G9IK3E-42" value="" style="endArrow=classic;html=1;rounded=0;exitX=1;exitY=0.5;exitDx=0;exitDy=0;fillColor=#dae8fc;strokeColor=#6c8ebf;entryX=0;entryY=0.5;entryDx=0;entryDy=0;" edge="1" parent="1" source="JMfvgWeIkwW7J8G9IK3E-41" target="JMfvgWeIkwW7J8G9IK3E-36">
          <mxGeometry width="50" height="50" relative="1" as="geometry">
            <mxPoint x="-440" y="130" as="sourcePoint" />
            <mxPoint x="-360" y="131.25" as="targetPoint" />
          </mxGeometry>
        </mxCell>
        <mxCell id="JMfvgWeIkwW7J8G9IK3E-43" value="" style="endArrow=classic;html=1;rounded=0;exitX=1;exitY=0.5;exitDx=0;exitDy=0;fillColor=#dae8fc;strokeColor=#6c8ebf;entryX=0;entryY=0.75;entryDx=0;entryDy=0;" edge="1" parent="1" source="JMfvgWeIkwW7J8G9IK3E-36" target="JMfvgWeIkwW7J8G9IK3E-32">
          <mxGeometry width="50" height="50" relative="1" as="geometry">
            <mxPoint x="-640" y="205" as="sourcePoint" />
            <mxPoint x="-600" y="205" as="targetPoint" />
          </mxGeometry>
        </mxCell>
        <mxCell id="kRdv5Xyp5Zt3pKr3yoIH-1" value="" style="rounded=0;whiteSpace=wrap;html=1;strokeWidth=2;" vertex="1" parent="1">
          <mxGeometry x="274" y="-100" width="336" height="190" as="geometry" />
        </mxCell>
        <mxCell id="kRdv5Xyp5Zt3pKr3yoIH-2" value="Worker" style="rounded=0;whiteSpace=wrap;html=1;fillColor=#fff2cc;strokeColor=#d6b656;strokeWidth=2;" vertex="1" parent="1">
          <mxGeometry x="284" y="-45" width="100" height="25" as="geometry" />
        </mxCell>
        <mxCell id="kRdv5Xyp5Zt3pKr3yoIH-3" value="Worker Node" style="text;html=1;align=center;verticalAlign=middle;whiteSpace=wrap;rounded=0;fontSize=18;" vertex="1" parent="1">
          <mxGeometry x="334" y="-95" width="120" height="30" as="geometry" />
        </mxCell>
        <mxCell id="kRdv5Xyp5Zt3pKr3yoIH-4" value="CacheEngine" style="rounded=0;whiteSpace=wrap;html=1;fillColor=#d5e8d4;strokeColor=#82b366;strokeWidth=2;" vertex="1" parent="1">
          <mxGeometry x="440" y="-45" width="91" height="25" as="geometry" />
        </mxCell>
        <mxCell id="kRdv5Xyp5Zt3pKr3yoIH-5" value="ModelRunner" style="rounded=0;whiteSpace=wrap;html=1;fillColor=#dae8fc;strokeColor=#6c8ebf;strokeWidth=2;" vertex="1" parent="1">
          <mxGeometry x="284" y="53" width="100" height="25" as="geometry" />
        </mxCell>
        <mxCell id="kRdv5Xyp5Zt3pKr3yoIH-6" value="Model" style="rounded=0;whiteSpace=wrap;html=1;fillColor=#f8cecc;strokeColor=#b85450;strokeWidth=2;" vertex="1" parent="1">
          <mxGeometry x="438" y="53" width="93" height="25" as="geometry" />
        </mxCell>
        <mxCell id="kRdv5Xyp5Zt3pKr3yoIH-7" value="" style="endArrow=classic;html=1;rounded=0;exitX=1;exitY=0.5;exitDx=0;exitDy=0;fillColor=#d5e8d4;strokeColor=#82b366;" edge="1" parent="1" source="kRdv5Xyp5Zt3pKr3yoIH-2" target="kRdv5Xyp5Zt3pKr3yoIH-4">
          <mxGeometry width="50" height="50" relative="1" as="geometry">
            <mxPoint x="414" y="210" as="sourcePoint" />
            <mxPoint x="464" y="160" as="targetPoint" />
          </mxGeometry>
        </mxCell>
        <mxCell id="kRdv5Xyp5Zt3pKr3yoIH-8" value="" style="endArrow=classic;html=1;rounded=0;entryX=0.5;entryY=0;entryDx=0;entryDy=0;" edge="1" parent="1" source="kRdv5Xyp5Zt3pKr3yoIH-2" target="kRdv5Xyp5Zt3pKr3yoIH-5">
          <mxGeometry width="50" height="50" relative="1" as="geometry">
            <mxPoint x="394" y="-22" as="sourcePoint" />
            <mxPoint x="415" y="-22" as="targetPoint" />
          </mxGeometry>
        </mxCell>
        <mxCell id="kRdv5Xyp5Zt3pKr3yoIH-9" value="AttentionBackend" style="rounded=0;whiteSpace=wrap;html=1;fillColor=#e1d5e7;strokeColor=#9673a6;" vertex="1" parent="1">
          <mxGeometry x="354" width="120" height="30" as="geometry" />
        </mxCell>
        <mxCell id="kRdv5Xyp5Zt3pKr3yoIH-10" value="" style="endArrow=classic;html=1;rounded=0;exitX=0.75;exitY=0;exitDx=0;exitDy=0;fillColor=#d5e8d4;strokeColor=#82b366;" edge="1" parent="1" source="kRdv5Xyp5Zt3pKr3yoIH-5" target="kRdv5Xyp5Zt3pKr3yoIH-9">
          <mxGeometry width="50" height="50" relative="1" as="geometry">
            <mxPoint x="384" y="210" as="sourcePoint" />
            <mxPoint x="434" y="160" as="targetPoint" />
          </mxGeometry>
        </mxCell>
        <mxCell id="kRdv5Xyp5Zt3pKr3yoIH-11" value="" style="endArrow=classic;html=1;rounded=0;entryX=0.75;entryY=0;entryDx=0;entryDy=0;fillColor=#d5e8d4;strokeColor=#82b366;" edge="1" parent="1" source="kRdv5Xyp5Zt3pKr3yoIH-4" target="kRdv5Xyp5Zt3pKr3yoIH-9">
          <mxGeometry width="50" height="50" relative="1" as="geometry">
            <mxPoint x="369" y="55" as="sourcePoint" />
            <mxPoint x="397" y="40" as="targetPoint" />
          </mxGeometry>
        </mxCell>
        <mxCell id="kRdv5Xyp5Zt3pKr3yoIH-12" value="" style="endArrow=classic;html=1;rounded=0;" edge="1" parent="1" source="kRdv5Xyp5Zt3pKr3yoIH-5" target="kRdv5Xyp5Zt3pKr3yoIH-6">
          <mxGeometry width="50" height="50" relative="1" as="geometry">
            <mxPoint x="369" y="63" as="sourcePoint" />
            <mxPoint x="402" y="40" as="targetPoint" />
          </mxGeometry>
        </mxCell>
        <mxCell id="kRdv5Xyp5Zt3pKr3yoIH-13" value="KVCacheManager" style="rounded=0;whiteSpace=wrap;html=1;fillColor=#ffe6cc;strokeColor=#d79b00;strokeWidth=2;shadow=1;glass=0;" vertex="1" parent="1">
          <mxGeometry x="30" y="117.5" width="110" height="32.5" as="geometry" />
        </mxCell>
        <mxCell id="kRdv5Xyp5Zt3pKr3yoIH-15" value="" style="endArrow=classic;html=1;rounded=0;fillColor=#d5e8d4;strokeColor=#82b366;strokeWidth=2;" edge="1" parent="1" source="-815vCcFMifysQOW950K-5" target="kRdv5Xyp5Zt3pKr3yoIH-13">
          <mxGeometry width="50" height="50" relative="1" as="geometry">
            <mxPoint x="-100" y="153" as="sourcePoint" />
            <mxPoint x="-60" y="143" as="targetPoint" />
          </mxGeometry>
        </mxCell>
        <mxCell id="kRdv5Xyp5Zt3pKr3yoIH-16" value="kv cache" style="endArrow=classic;html=1;rounded=0;fillColor=#d5e8d4;strokeColor=#82b366;strokeWidth=2;entryX=0.955;entryY=0.1;entryDx=0;entryDy=0;entryPerimeter=0;" edge="1" parent="1" target="DFlWInDrFq28ID34mn4g-7">
          <mxGeometry width="50" height="50" relative="1" as="geometry">
            <mxPoint x="20" y="78" as="sourcePoint" />
            <mxPoint x="120" y="78" as="targetPoint" />
          </mxGeometry>
        </mxCell>
        <mxCell id="kRdv5Xyp5Zt3pKr3yoIH-17" value="model forward" style="endArrow=classic;html=1;rounded=0;fillColor=#dae8fc;strokeColor=light-dark(#01070e, #5c79a3);strokeWidth=2;" edge="1" parent="1">
          <mxGeometry width="50" height="50" relative="1" as="geometry">
            <mxPoint x="20" y="100" as="sourcePoint" />
            <mxPoint x="140" y="100" as="targetPoint" />
          </mxGeometry>
        </mxCell>
        <mxCell id="kRdv5Xyp5Zt3pKr3yoIH-18" value="kv cache" style="endArrow=classic;html=1;rounded=0;fillColor=#d5e8d4;strokeColor=#82b366;strokeWidth=2;entryX=0.955;entryY=0.1;entryDx=0;entryDy=0;entryPerimeter=0;" edge="1" parent="1">
          <mxGeometry width="50" height="50" relative="1" as="geometry">
            <mxPoint x="474" y="-80.5" as="sourcePoint" />
            <mxPoint x="594" y="-80.5" as="targetPoint" />
          </mxGeometry>
        </mxCell>
        <mxCell id="kRdv5Xyp5Zt3pKr3yoIH-19" value="model forward" style="endArrow=classic;html=1;rounded=0;" edge="1" parent="1">
          <mxGeometry width="50" height="50" relative="1" as="geometry">
            <mxPoint x="474" y="-60" as="sourcePoint" />
            <mxPoint x="594" y="-60" as="targetPoint" />
          </mxGeometry>
        </mxCell>
        <mxCell id="kRdv5Xyp5Zt3pKr3yoIH-20" value="" style="rounded=0;whiteSpace=wrap;html=1;strokeWidth=2;" vertex="1" parent="1">
          <mxGeometry x="274" y="178" width="336" height="202" as="geometry" />
        </mxCell>
        <mxCell id="kRdv5Xyp5Zt3pKr3yoIH-21" value="Worker" style="rounded=0;whiteSpace=wrap;html=1;fillColor=#fff2cc;strokeColor=#d6b656;strokeWidth=2;" vertex="1" parent="1">
          <mxGeometry x="284" y="233" width="100" height="25" as="geometry" />
        </mxCell>
        <mxCell id="kRdv5Xyp5Zt3pKr3yoIH-22" value="Worker Node" style="text;html=1;align=center;verticalAlign=middle;whiteSpace=wrap;rounded=0;fontSize=18;" vertex="1" parent="1">
          <mxGeometry x="334" y="183" width="120" height="30" as="geometry" />
        </mxCell>
        <mxCell id="kRdv5Xyp5Zt3pKr3yoIH-23" value="CacheEngine" style="rounded=0;whiteSpace=wrap;html=1;fillColor=#d5e8d4;strokeColor=#82b366;strokeWidth=2;" vertex="1" parent="1">
          <mxGeometry x="440" y="233" width="91" height="25" as="geometry" />
        </mxCell>
        <mxCell id="kRdv5Xyp5Zt3pKr3yoIH-24" value="ModelRunner" style="rounded=0;whiteSpace=wrap;html=1;fillColor=#dae8fc;strokeColor=#6c8ebf;strokeWidth=2;" vertex="1" parent="1">
          <mxGeometry x="284" y="331" width="100" height="25" as="geometry" />
        </mxCell>
        <mxCell id="kRdv5Xyp5Zt3pKr3yoIH-25" value="Model" style="rounded=0;whiteSpace=wrap;html=1;fillColor=#f8cecc;strokeColor=#b85450;strokeWidth=2;" vertex="1" parent="1">
          <mxGeometry x="438" y="331" width="93" height="25" as="geometry" />
        </mxCell>
        <mxCell id="kRdv5Xyp5Zt3pKr3yoIH-26" value="" style="endArrow=classic;html=1;rounded=0;exitX=1;exitY=0.5;exitDx=0;exitDy=0;fillColor=#d5e8d4;strokeColor=#82b366;" edge="1" parent="1" source="kRdv5Xyp5Zt3pKr3yoIH-21" target="kRdv5Xyp5Zt3pKr3yoIH-23">
          <mxGeometry width="50" height="50" relative="1" as="geometry">
            <mxPoint x="414" y="488" as="sourcePoint" />
            <mxPoint x="464" y="438" as="targetPoint" />
          </mxGeometry>
        </mxCell>
        <mxCell id="kRdv5Xyp5Zt3pKr3yoIH-27" value="" style="endArrow=classic;html=1;rounded=0;entryX=0.5;entryY=0;entryDx=0;entryDy=0;" edge="1" parent="1" source="kRdv5Xyp5Zt3pKr3yoIH-21" target="kRdv5Xyp5Zt3pKr3yoIH-24">
          <mxGeometry width="50" height="50" relative="1" as="geometry">
            <mxPoint x="394" y="256" as="sourcePoint" />
            <mxPoint x="415" y="256" as="targetPoint" />
          </mxGeometry>
        </mxCell>
        <mxCell id="kRdv5Xyp5Zt3pKr3yoIH-28" value="AttentionBackend" style="rounded=0;whiteSpace=wrap;html=1;fillColor=#e1d5e7;strokeColor=#9673a6;" vertex="1" parent="1">
          <mxGeometry x="354" y="278" width="120" height="30" as="geometry" />
        </mxCell>
        <mxCell id="kRdv5Xyp5Zt3pKr3yoIH-29" value="" style="endArrow=classic;html=1;rounded=0;exitX=0.75;exitY=0;exitDx=0;exitDy=0;fillColor=#d5e8d4;strokeColor=#82b366;" edge="1" parent="1" source="kRdv5Xyp5Zt3pKr3yoIH-24" target="kRdv5Xyp5Zt3pKr3yoIH-28">
          <mxGeometry width="50" height="50" relative="1" as="geometry">
            <mxPoint x="384" y="488" as="sourcePoint" />
            <mxPoint x="434" y="438" as="targetPoint" />
          </mxGeometry>
        </mxCell>
        <mxCell id="kRdv5Xyp5Zt3pKr3yoIH-30" value="" style="endArrow=classic;html=1;rounded=0;entryX=0.75;entryY=0;entryDx=0;entryDy=0;fillColor=#d5e8d4;strokeColor=#82b366;" edge="1" parent="1" source="kRdv5Xyp5Zt3pKr3yoIH-23" target="kRdv5Xyp5Zt3pKr3yoIH-28">
          <mxGeometry width="50" height="50" relative="1" as="geometry">
            <mxPoint x="369" y="333" as="sourcePoint" />
            <mxPoint x="397" y="318" as="targetPoint" />
          </mxGeometry>
        </mxCell>
        <mxCell id="kRdv5Xyp5Zt3pKr3yoIH-31" value="" style="endArrow=classic;html=1;rounded=0;" edge="1" parent="1" source="kRdv5Xyp5Zt3pKr3yoIH-24" target="kRdv5Xyp5Zt3pKr3yoIH-25">
          <mxGeometry width="50" height="50" relative="1" as="geometry">
            <mxPoint x="369" y="341" as="sourcePoint" />
            <mxPoint x="402" y="318" as="targetPoint" />
          </mxGeometry>
        </mxCell>
        <mxCell id="kRdv5Xyp5Zt3pKr3yoIH-32" value="kv cache" style="endArrow=classic;html=1;rounded=0;fillColor=#d5e8d4;strokeColor=#82b366;strokeWidth=2;entryX=0.955;entryY=0.1;entryDx=0;entryDy=0;entryPerimeter=0;" edge="1" parent="1">
          <mxGeometry width="50" height="50" relative="1" as="geometry">
            <mxPoint x="474" y="197.5" as="sourcePoint" />
            <mxPoint x="594" y="197.5" as="targetPoint" />
          </mxGeometry>
        </mxCell>
        <mxCell id="kRdv5Xyp5Zt3pKr3yoIH-33" value="model forward" style="endArrow=classic;html=1;rounded=0;" edge="1" parent="1">
          <mxGeometry width="50" height="50" relative="1" as="geometry">
            <mxPoint x="474" y="218" as="sourcePoint" />
            <mxPoint x="594" y="218" as="targetPoint" />
          </mxGeometry>
        </mxCell>
      </root>
    </mxGraphModel>
  </diagram>
  <diagram name="EngineCoreProc" id="TIBVJPE8Si_duUqUehif">
    <mxGraphModel dx="1583" dy="751" grid="1" gridSize="10" guides="1" tooltips="1" connect="1" arrows="1" fold="1" page="1" pageScale="1" pageWidth="827" pageHeight="1169" math="0" shadow="0">
      <root>
        <mxCell id="0" />
        <mxCell id="1" parent="0" />
        <mxCell id="F7sLPCdQz_H2dGt5RqWD-3" style="edgeStyle=orthogonalEdgeStyle;rounded=0;orthogonalLoop=1;jettySize=auto;html=1;" edge="1" parent="1" source="F7sLPCdQz_H2dGt5RqWD-1" target="F7sLPCdQz_H2dGt5RqWD-2">
          <mxGeometry relative="1" as="geometry" />
        </mxCell>
        <mxCell id="F7sLPCdQz_H2dGt5RqWD-1" value="llm_engine" style="rounded=1;whiteSpace=wrap;html=1;fillColor=#d5e8d4;strokeColor=#82b366;" vertex="1" parent="1">
          <mxGeometry x="-30" y="260" width="120" height="60" as="geometry" />
        </mxCell>
        <mxCell id="F7sLPCdQz_H2dGt5RqWD-2" value="mp_client" style="rounded=1;whiteSpace=wrap;html=1;fillColor=#d5e8d4;strokeColor=#82b366;" vertex="1" parent="1">
          <mxGeometry x="160" y="260" width="120" height="60" as="geometry" />
        </mxCell>
        <mxCell id="F7sLPCdQz_H2dGt5RqWD-4" value="EngineCoreProc" style="rounded=1;whiteSpace=wrap;html=1;labelPosition=center;verticalLabelPosition=bottom;align=center;verticalAlign=top;fillColor=#fff2cc;strokeColor=#d6b656;" vertex="1" parent="1">
          <mxGeometry x="540" y="180" width="780" height="220" as="geometry" />
        </mxCell>
        <mxCell id="F7sLPCdQz_H2dGt5RqWD-8" value="threading&lt;br&gt;（process_input_socket)" style="rounded=1;whiteSpace=wrap;html=1;" vertex="1" parent="1">
          <mxGeometry x="595" y="210" width="215" height="40" as="geometry" />
        </mxCell>
        <mxCell id="F7sLPCdQz_H2dGt5RqWD-9" value="threading&lt;br&gt;（&lt;span style=&quot;font-family: &amp;quot;JetBrains Mono&amp;quot;, monospace; font-size: 10.5pt; background-color: rgb(255, 255, 255); color: rgb(8, 8, 8);&quot;&gt;process_output_socket&lt;/span&gt;&lt;span style=&quot;background-color: transparent; color: light-dark(rgb(0, 0, 0), rgb(255, 255, 255));&quot;&gt;)&lt;/span&gt;" style="rounded=1;whiteSpace=wrap;html=1;" vertex="1" parent="1">
          <mxGeometry x="600" y="300" width="205" height="40" as="geometry" />
        </mxCell>
        <mxCell id="F7sLPCdQz_H2dGt5RqWD-12" value="" style="endArrow=classic;html=1;rounded=0;" edge="1" parent="1" source="F7sLPCdQz_H2dGt5RqWD-9" target="F7sLPCdQz_H2dGt5RqWD-16">
          <mxGeometry width="50" height="50" relative="1" as="geometry">
            <mxPoint x="390" y="450" as="sourcePoint" />
            <mxPoint x="470" y="330" as="targetPoint" />
          </mxGeometry>
        </mxCell>
        <mxCell id="F7sLPCdQz_H2dGt5RqWD-26" value="send output" style="edgeLabel;html=1;align=center;verticalAlign=middle;resizable=0;points=[];" vertex="1" connectable="0" parent="F7sLPCdQz_H2dGt5RqWD-12">
          <mxGeometry x="0.1789" y="1" relative="1" as="geometry">
            <mxPoint y="-1" as="offset" />
          </mxGeometry>
        </mxCell>
        <mxCell id="F7sLPCdQz_H2dGt5RqWD-13" value="zmq" style="sketch=0;outlineConnect=0;fontColor=#232F3E;gradientColor=none;strokeColor=#232F3E;fillColor=#ffffff;dashed=0;verticalLabelPosition=bottom;verticalAlign=top;align=center;html=1;fontSize=12;fontStyle=0;aspect=fixed;shape=mxgraph.aws4.resourceIcon;resIcon=mxgraph.aws4.queue;" vertex="1" parent="1">
          <mxGeometry x="340" y="130" width="60" height="60" as="geometry" />
        </mxCell>
        <mxCell id="F7sLPCdQz_H2dGt5RqWD-14" value="" style="endArrow=classic;html=1;rounded=0;" edge="1" parent="1" source="F7sLPCdQz_H2dGt5RqWD-2" target="F7sLPCdQz_H2dGt5RqWD-13">
          <mxGeometry width="50" height="50" relative="1" as="geometry">
            <mxPoint x="280" y="190" as="sourcePoint" />
            <mxPoint x="330" y="140" as="targetPoint" />
          </mxGeometry>
        </mxCell>
        <mxCell id="F7sLPCdQz_H2dGt5RqWD-15" value="add_request" style="edgeLabel;html=1;align=center;verticalAlign=middle;resizable=0;points=[];" vertex="1" connectable="0" parent="F7sLPCdQz_H2dGt5RqWD-14">
          <mxGeometry x="-0.254" y="1" relative="1" as="geometry">
            <mxPoint as="offset" />
          </mxGeometry>
        </mxCell>
        <mxCell id="F7sLPCdQz_H2dGt5RqWD-16" value="output_socket" style="sketch=0;outlineConnect=0;fontColor=#232F3E;gradientColor=none;strokeColor=#232F3E;fillColor=#ffffff;dashed=0;verticalLabelPosition=bottom;verticalAlign=top;align=center;html=1;fontSize=12;fontStyle=0;aspect=fixed;shape=mxgraph.aws4.resourceIcon;resIcon=mxgraph.aws4.queue;" vertex="1" parent="1">
          <mxGeometry x="340" y="380" width="60" height="60" as="geometry" />
        </mxCell>
        <mxCell id="F7sLPCdQz_H2dGt5RqWD-17" value="" style="endArrow=classic;html=1;rounded=0;" edge="1" parent="1" source="F7sLPCdQz_H2dGt5RqWD-16" target="F7sLPCdQz_H2dGt5RqWD-2">
          <mxGeometry width="50" height="50" relative="1" as="geometry">
            <mxPoint x="261" y="270" as="sourcePoint" />
            <mxPoint x="250" y="420" as="targetPoint" />
          </mxGeometry>
        </mxCell>
        <mxCell id="F7sLPCdQz_H2dGt5RqWD-19" value="get_output" style="edgeLabel;html=1;align=center;verticalAlign=middle;resizable=0;points=[];" vertex="1" connectable="0" parent="F7sLPCdQz_H2dGt5RqWD-17">
          <mxGeometry x="-0.1593" y="-1" relative="1" as="geometry">
            <mxPoint as="offset" />
          </mxGeometry>
        </mxCell>
        <mxCell id="F7sLPCdQz_H2dGt5RqWD-20" value="" style="endArrow=classic;html=1;rounded=0;" edge="1" parent="1" source="F7sLPCdQz_H2dGt5RqWD-13" target="F7sLPCdQz_H2dGt5RqWD-8">
          <mxGeometry width="50" height="50" relative="1" as="geometry">
            <mxPoint x="470" y="150" as="sourcePoint" />
            <mxPoint x="520" y="100" as="targetPoint" />
          </mxGeometry>
        </mxCell>
        <mxCell id="F7sLPCdQz_H2dGt5RqWD-21" value="decode request" style="edgeLabel;html=1;align=center;verticalAlign=middle;resizable=0;points=[];" vertex="1" connectable="0" parent="F7sLPCdQz_H2dGt5RqWD-20">
          <mxGeometry x="-0.2788" y="-4" relative="1" as="geometry">
            <mxPoint as="offset" />
          </mxGeometry>
        </mxCell>
        <mxCell id="F7sLPCdQz_H2dGt5RqWD-22" value="input_queue" style="outlineConnect=0;dashed=0;verticalLabelPosition=bottom;verticalAlign=top;align=center;html=1;shape=mxgraph.aws3.queue;fillColor=#D9A741;gradientColor=none;" vertex="1" parent="1">
          <mxGeometry x="950" y="206" width="73.5" height="48" as="geometry" />
        </mxCell>
        <mxCell id="F7sLPCdQz_H2dGt5RqWD-23" value="add request" style="endArrow=classic;html=1;rounded=0;" edge="1" parent="1" source="F7sLPCdQz_H2dGt5RqWD-8" target="F7sLPCdQz_H2dGt5RqWD-22">
          <mxGeometry width="50" height="50" relative="1" as="geometry">
            <mxPoint x="870" y="260" as="sourcePoint" />
            <mxPoint x="920" y="210" as="targetPoint" />
            <mxPoint as="offset" />
          </mxGeometry>
        </mxCell>
        <mxCell id="F7sLPCdQz_H2dGt5RqWD-24" value="decode output" style="endArrow=classic;html=1;rounded=0;" edge="1" parent="1" source="F7sLPCdQz_H2dGt5RqWD-25" target="F7sLPCdQz_H2dGt5RqWD-9">
          <mxGeometry width="50" height="50" relative="1" as="geometry">
            <mxPoint x="820" y="240" as="sourcePoint" />
            <mxPoint x="930" y="240" as="targetPoint" />
            <mxPoint as="offset" />
          </mxGeometry>
        </mxCell>
        <mxCell id="F7sLPCdQz_H2dGt5RqWD-25" value="output_queue" style="outlineConnect=0;dashed=0;verticalLabelPosition=bottom;verticalAlign=top;align=center;html=1;shape=mxgraph.aws3.queue;fillColor=#D9A741;gradientColor=none;" vertex="1" parent="1">
          <mxGeometry x="950" y="310" width="73.5" height="48" as="geometry" />
        </mxCell>
        <mxCell id="F7sLPCdQz_H2dGt5RqWD-27" value="run_busy_loop" style="rounded=1;whiteSpace=wrap;html=1;" vertex="1" parent="1">
          <mxGeometry x="1160" y="250" width="120" height="60" as="geometry" />
        </mxCell>
        <mxCell id="F7sLPCdQz_H2dGt5RqWD-28" value="" style="endArrow=classic;html=1;rounded=0;" edge="1" parent="1" source="F7sLPCdQz_H2dGt5RqWD-22" target="F7sLPCdQz_H2dGt5RqWD-27">
          <mxGeometry width="50" height="50" relative="1" as="geometry">
            <mxPoint x="1110" y="260" as="sourcePoint" />
            <mxPoint x="1160" y="210" as="targetPoint" />
          </mxGeometry>
        </mxCell>
        <mxCell id="F7sLPCdQz_H2dGt5RqWD-29" value="poll request" style="edgeLabel;html=1;align=center;verticalAlign=middle;resizable=0;points=[];" vertex="1" connectable="0" parent="F7sLPCdQz_H2dGt5RqWD-28">
          <mxGeometry x="-0.1109" y="-1" relative="1" as="geometry">
            <mxPoint as="offset" />
          </mxGeometry>
        </mxCell>
        <mxCell id="F7sLPCdQz_H2dGt5RqWD-30" value="" style="endArrow=classic;html=1;rounded=0;" edge="1" parent="1" source="F7sLPCdQz_H2dGt5RqWD-27" target="F7sLPCdQz_H2dGt5RqWD-25">
          <mxGeometry width="50" height="50" relative="1" as="geometry">
            <mxPoint x="1030" y="460" as="sourcePoint" />
            <mxPoint x="1080" y="410" as="targetPoint" />
          </mxGeometry>
        </mxCell>
        <mxCell id="F7sLPCdQz_H2dGt5RqWD-31" value="add output" style="edgeLabel;html=1;align=center;verticalAlign=middle;resizable=0;points=[];" vertex="1" connectable="0" parent="F7sLPCdQz_H2dGt5RqWD-30">
          <mxGeometry x="-0.2056" y="1" relative="1" as="geometry">
            <mxPoint as="offset" />
          </mxGeometry>
        </mxCell>
        <mxCell id="F7sLPCdQz_H2dGt5RqWD-32" value="Schedular" style="rounded=1;whiteSpace=wrap;html=1;labelPosition=center;verticalLabelPosition=bottom;align=center;verticalAlign=top;" vertex="1" parent="1">
          <mxGeometry x="1095" y="505" width="245" height="80" as="geometry" />
        </mxCell>
        <mxCell id="F7sLPCdQz_H2dGt5RqWD-33" value="" style="endArrow=classic;html=1;rounded=0;entryX=0.5;entryY=0;entryDx=0;entryDy=0;entryPerimeter=0;" edge="1" parent="1" source="F7sLPCdQz_H2dGt5RqWD-27" target="F7sLPCdQz_H2dGt5RqWD-35">
          <mxGeometry width="50" height="50" relative="1" as="geometry">
            <mxPoint x="1310" y="440" as="sourcePoint" />
            <mxPoint x="1360" y="390" as="targetPoint" />
          </mxGeometry>
        </mxCell>
        <mxCell id="F7sLPCdQz_H2dGt5RqWD-34" value="1. add_request" style="edgeLabel;html=1;align=center;verticalAlign=middle;resizable=0;points=[];" vertex="1" connectable="0" parent="F7sLPCdQz_H2dGt5RqWD-33">
          <mxGeometry x="0.2" y="-1" relative="1" as="geometry">
            <mxPoint as="offset" />
          </mxGeometry>
        </mxCell>
        <mxCell id="F7sLPCdQz_H2dGt5RqWD-35" value="waiting" style="sketch=0;aspect=fixed;pointerEvents=1;shadow=0;dashed=0;html=1;strokeColor=none;labelPosition=center;verticalLabelPosition=bottom;verticalAlign=top;align=center;fillColor=#00188D;shape=mxgraph.azure.queue_generic" vertex="1" parent="1">
          <mxGeometry x="1195" y="510" width="50" height="15" as="geometry" />
        </mxCell>
        <mxCell id="F7sLPCdQz_H2dGt5RqWD-37" value="&lt;div style=&quot;background-color:#ffffff;color:#080808&quot;&gt;&lt;pre style=&quot;font-family:&#39;JetBrains Mono&#39;,monospace;font-size:10.5pt;&quot;&gt;MultiprocExecutor&lt;/pre&gt;&lt;/div&gt;" style="text;whiteSpace=wrap;html=1;" vertex="1" parent="1">
          <mxGeometry x="1370" y="70" width="180" height="70" as="geometry" />
        </mxCell>
      </root>
    </mxGraphModel>
  </diagram>
  <diagram id="ZcLRUCSyjxpm8LNQo_c4" name="rpc">
    <mxGraphModel dx="756" dy="751" grid="1" gridSize="10" guides="1" tooltips="1" connect="1" arrows="1" fold="1" page="1" pageScale="1" pageWidth="827" pageHeight="1169" math="0" shadow="0">
      <root>
        <mxCell id="0" />
        <mxCell id="1" parent="0" />
      </root>
    </mxGraphModel>
  </diagram>
  <diagram id="6STBxyfGqHNGbPH3Bq0F" name="page attention">
    <mxGraphModel dx="756" dy="751" grid="1" gridSize="10" guides="1" tooltips="1" connect="1" arrows="1" fold="1" page="1" pageScale="1" pageWidth="827" pageHeight="1169" math="0" shadow="0">
      <root>
        <mxCell id="0" />
        <mxCell id="1" parent="0" />
      </root>
    </mxGraphModel>
  </diagram>
  <diagram id="G0uhLeJTTBbAeIwOs_3N" name="scheduler">
    <mxGraphModel dx="756" dy="751" grid="1" gridSize="10" guides="1" tooltips="1" connect="1" arrows="1" fold="1" page="1" pageScale="1" pageWidth="827" pageHeight="1169" math="0" shadow="0">
      <root>
        <mxCell id="0" />
        <mxCell id="1" parent="0" />
      </root>
    </mxGraphModel>
  </diagram>
  <diagram id="txsAkKuhhhBJykXiVPvk" name="Executor">
    <mxGraphModel dx="756" dy="751" grid="1" gridSize="10" guides="1" tooltips="1" connect="1" arrows="1" fold="1" page="1" pageScale="1" pageWidth="827" pageHeight="1169" math="0" shadow="0">
      <root>
        <mxCell id="0" />
        <mxCell id="1" parent="0" />
      </root>
    </mxGraphModel>
  </diagram>
  <diagram id="s9Lg1JfD9EUz8NIktaL7" name="Worker">
    <mxGraphModel dx="756" dy="751" grid="1" gridSize="10" guides="1" tooltips="1" connect="1" arrows="1" fold="1" page="1" pageScale="1" pageWidth="827" pageHeight="1169" math="0" shadow="0">
      <root>
        <mxCell id="0" />
        <mxCell id="1" parent="0" />
      </root>
    </mxGraphModel>
  </diagram>
  <diagram id="5RTJdD1pOQSyfT9PplAV" name="model_runner">
    <mxGraphModel dx="756" dy="751" grid="1" gridSize="10" guides="1" tooltips="1" connect="1" arrows="1" fold="1" page="1" pageScale="1" pageWidth="827" pageHeight="1169" math="0" shadow="0">
      <root>
        <mxCell id="0" />
        <mxCell id="1" parent="0" />
      </root>
    </mxGraphModel>
  </diagram>
  <diagram id="AgS8Xns449-7P9UgSnZN" name="deepseek_v3">
    <mxGraphModel dx="756" dy="751" grid="1" gridSize="10" guides="1" tooltips="1" connect="1" arrows="1" fold="1" page="1" pageScale="1" pageWidth="827" pageHeight="1169" math="0" shadow="0">
      <root>
        <mxCell id="0" />
        <mxCell id="1" parent="0" />
        <mxCell id="zo-2ny9y-x9IaGhEG9BQ-1" value="" style="whiteSpace=wrap;html=1;" vertex="1" parent="1">
          <mxGeometry x="330" y="360" width="120" height="60" as="geometry" />
        </mxCell>
      </root>
    </mxGraphModel>
  </diagram>
  <diagram id="nJmGsad2fYNuxdY_kRqu" name="cache_engine">
    <mxGraphModel dx="756" dy="751" grid="1" gridSize="10" guides="1" tooltips="1" connect="1" arrows="1" fold="1" page="1" pageScale="1" pageWidth="827" pageHeight="1169" math="0" shadow="0">
      <root>
        <mxCell id="0" />
        <mxCell id="1" parent="0" />
      </root>
    </mxGraphModel>
  </diagram>
</mxfile>
